<?xml version="1.0" standalone="no"?>
<!DOCTYPE svg PUBLIC "-//W3C//DTD SVG 20010904//EN"
 "http://www.w3.org/TR/2001/REC-SVG-20010904/DTD/svg10.dtd">
<svg version="1.0" xmlns="http://www.w3.org/2000/svg"
 width="198.000000pt" height="198.000000pt" viewBox="0 0 198.000000 198.000000"
 preserveAspectRatio="xMidYMid meet">
<metadata>
Created by potrace 1.14, written by Peter Selinger 2001-2017
</metadata>
<g transform="translate(0.000000,198.000000) scale(0.100000,-0.100000)"
fill="#000000" stroke="none">
<path d="M940 1876 c0 -51 -1 -53 -25 -48 -22 4 -25 1 -25 -22 0 -30 -7 -33
-26 -8 -13 16 -14 16 -7 -2 4 -13 3 -17 -5 -12 -7 4 -12 3 -12 -2 0 -5 -10 -8
-22 -8 -17 1 -23 -5 -23 -19 0 -17 -7 -20 -48 -20 -26 0 -47 -4 -47 -9 0 -4
-7 -6 -15 -2 -9 3 -19 -3 -25 -14 -7 -14 -7 -20 0 -20 5 0 10 7 10 15 0 8 6
12 14 9 8 -3 12 -12 10 -19 -4 -8 -25 -13 -62 -14 -31 -1 -65 -2 -75 -2 -10 0
-17 -6 -16 -12 1 -7 1 -19 0 -27 -1 -12 -4 -12 -12 3 -5 9 -8 21 -5 25 3 5 -1
9 -9 9 -8 0 -12 -4 -9 -9 3 -4 1 -8 -5 -8 -5 0 -12 6 -14 13 -4 9 -6 9 -6 -1
-1 -8 -6 -10 -13 -6 -8 4 -10 3 -5 -2 9 -9 13 -10 42 -13 32 -2 13 -16 -24
-16 -32 0 -38 3 -37 20 1 17 -6 20 -46 22 l-46 2 -4 -49 c-3 -42 0 -50 17 -54
10 -3 23 0 27 7 4 7 5 -3 1 -22 -4 -25 -3 -32 6 -27 8 5 11 1 8 -16 -2 -12 -2
-17 0 -10 3 7 8 10 13 7 5 -3 12 0 16 6 5 8 3 9 -6 4 -9 -6 -11 -4 -5 4 5 9
10 10 18 2 7 -7 6 -15 -3 -26 -10 -13 -9 -15 6 -16 28 -1 77 -6 89 -7 6 -1 10
-51 10 -129 0 -113 -2 -128 -17 -125 -9 1 -20 -3 -24 -9 -4 -7 -3 -9 4 -6 14
9 43 -3 36 -14 -3 -5 -16 -9 -30 -9 -21 0 -24 -4 -20 -25 4 -22 1 -25 -25 -25
-18 0 -29 -5 -28 -12 4 -31 -3 -35 -57 -37 -31 0 -60 -3 -65 -7 -5 -3 -12 2
-15 11 -5 11 -10 13 -19 5 -8 -7 -12 -5 -12 5 0 7 3 13 6 12 3 -1 7 3 9 8 1 6
-17 10 -40 10 -38 0 -43 -3 -46 -25 -4 -35 -4 -41 1 -79 4 -36 27 -57 24 -22
0 11 -5 17 -11 14 -5 -3 -6 -1 -2 5 4 6 13 9 21 6 8 -4 13 -10 10 -14 -11 -18
7 -37 31 -32 14 2 24 0 24 -7 0 -7 -4 -10 -9 -7 -4 3 -17 -1 -27 -9 -10 -8
-14 -15 -7 -15 6 0 15 5 18 10 4 6 11 7 17 4 6 -4 5 -10 -3 -16 -11 -7 -11 -9
1 -7 8 1 36 1 61 0 l46 -1 -2 -132 c-2 -140 -8 -170 -31 -161 -8 3 -15 -1 -15
-11 -4 -44 0 -41 -51 -45 -10 0 -18 -6 -18 -12 0 -5 4 -8 9 -5 5 4 7 -3 4 -15
-4 -14 -9 -17 -16 -10 -5 5 -17 7 -26 3 -15 -7 -54 -8 -106 -3 -11 2 -15 5 -7
8 6 2 12 11 12 19 0 10 -14 14 -50 14 l-50 0 0 -49 c0 -44 3 -50 23 -53 16 -2
22 -9 21 -25 0 -18 5 -23 25 -24 14 -1 30 -1 36 1 5 1 1 -9 -10 -21 -11 -12
-15 -19 -8 -16 6 4 14 1 16 -5 4 -10 6 -10 6 0 1 8 6 10 13 6 7 -4 26 -8 43
-8 l30 -1 2 -140 c1 -77 2 -155 2 -172 l1 -33 740 0 740 0 0 176 c0 168 1 175
19 169 11 -3 23 -1 26 6 6 8 10 8 15 -2 6 -9 12 -10 22 -1 7 6 25 9 39 8 26
-3 28 2 31 66 1 20 4 23 13 15 7 -7 10 -19 7 -27 -5 -13 -4 -13 10 0 14 13 14
16 -1 27 -14 12 -14 12 2 7 15 -5 17 1 17 45 l0 51 -49 0 c-44 0 -49 -2 -46
-20 2 -11 1 -20 -3 -21 -36 -5 -119 -2 -116 3 7 10 -32 29 -42 20 -5 -4 -3 1
4 10 12 14 10 16 -13 13 -30 -3 -46 22 -24 36 12 7 12 9 -1 10 -8 1 -23 1 -32
0 -20 -3 -20 -9 -22 171 l-2 127 49 3 c32 2 52 8 55 17 3 9 0 11 -9 5 -12 -7
-12 -5 0 9 15 19 41 23 41 6 0 -5 -4 -8 -8 -5 -4 2 -8 -4 -8 -14 0 -10 5 -16
11 -13 12 4 12 6 16 58 1 24 7 31 23 33 12 0 16 -2 9 -6 -19 -12 -19 -34 0
-37 9 -2 17 1 17 6 0 5 -5 9 -11 9 -8 0 -8 4 -1 13 6 7 11 35 10 63 l0 51 -48
-1 c-44 -1 -47 -3 -44 -23 4 -22 1 -23 -56 -23 -36 0 -60 4 -60 11 0 5 4 8 8
5 5 -3 9 1 9 7 0 7 -10 14 -21 15 -17 1 -18 -1 -6 -8 11 -7 11 -10 2 -10 -7 0
-10 -4 -7 -10 3 -5 1 -10 -5 -10 -6 0 -10 6 -9 13 4 31 -2 38 -28 35 -18 -2
-27 2 -25 10 1 6 3 17 5 24 1 6 -7 13 -18 15 -43 8 -48 12 -35 28 7 8 8 15 4
15 -10 0 -13 249 -4 251 5 1 44 5 102 11 20 1 34 7 31 11 -2 4 -13 5 -23 2
-17 -5 -19 2 -11 33 1 1 10 -2 20 -7 14 -8 22 -7 31 4 6 7 19 11 28 8 9 -3 14
-3 10 1 -5 6 -14 9 -48 15 -3 1 2 5 10 11 8 5 19 5 25 0 8 -6 12 4 14 32 1 23
4 45 7 49 2 4 0 10 -6 14 -6 4 -8 11 -5 16 4 5 -3 5 -18 0 -13 -5 -30 -5 -37
-1 -9 6 -18 3 -27 -8 -19 -25 -16 -34 10 -26 12 3 19 3 14 -1 -11 -12 -97 -14
-97 -2 0 5 -5 5 -13 -2 -17 -13 -28 -5 -20 16 5 12 7 12 14 1 7 -10 9 -10 9 1
0 11 3 11 13 -3 12 -16 13 -16 13 1 0 19 -15 21 -151 27 -45 2 -50 4 -47 24 3
20 -1 22 -40 23 -24 1 -46 1 -50 0 -5 0 -9 4 -9 9 -1 6 -2 14 -3 19 -2 19 -17
25 -26 11 -7 -10 -10 -11 -10 -2 0 7 -13 12 -30 12 -25 0 -30 4 -30 25 0 20
-5 25 -25 25 -26 0 -29 6 -25 68 l2 32 -51 0 -51 0 0 -54z m-110 -121 c7 -9
10 -18 6 -22 -3 -3 -6 -1 -6 6 0 7 -5 9 -12 5 -6 -4 -8 -3 -4 4 3 5 0 13 -6
15 -8 4 -9 6 -2 6 6 1 17 -6 24 -14z m-575 -655 c-3 -5 -12 -10 -18 -10 -7 0
-6 4 3 10 19 12 23 12 15 0z m1615 -656 c0 -3 -6 -12 -14 -20 -11 -10 -17 -11
-22 -3 -3 6 0 15 7 20 16 10 29 12 29 3z"/>
<path d="M1313 1723 c4 -3 -1 -12 -11 -20 -15 -13 -15 -13 6 -3 19 9 23 30 5
30 -4 0 -3 -3 0 -7z"/>
<path d="M350 1566 c0 -2 7 -7 16 -10 8 -3 12 -2 9 4 -6 10 -25 14 -25 6z"/>
<path d="M398 1133 c9 -3 10 -9 3 -17 -7 -8 -4 -12 9 -13 11 -1 22 2 25 8 4 5
-2 6 -12 2 -15 -6 -16 -4 -6 8 10 12 8 15 -10 16 -12 0 -16 -1 -9 -4z"/>
<path d="M360 680 c-9 -6 -10 -10 -3 -10 6 0 15 5 18 10 8 12 4 12 -15 0z"/>
<path d="M1610 680 c-9 -6 -10 -10 -3 -10 6 0 15 5 18 10 8 12 4 12 -15 0z"/>
<path d="M1704 589 c-4 -7 -3 -9 4 -5 6 3 13 -2 15 -11 4 -16 5 -16 6 -1 1 21
-15 32 -25 17z"/>
<path d="M253 577 c0 -8 6 -14 13 -14 7 0 10 6 7 14 -3 7 -8 13 -12 13 -4 0
-8 -6 -8 -13z"/>
<path d="M54 468 c-4 -5 -3 -12 0 -15 3 -4 6 0 6 8 0 11 2 12 9 1 7 -11 9 -11
14 0 6 16 -20 21 -29 6z"/>
<path d="M106 414 c-5 -14 -4 -15 9 -4 17 14 19 20 6 20 -5 0 -12 -7 -15 -16z"/>
</g>
</svg>
